<svg xmlns="http://www.w3.org/2000/svg" xmlns:xlink="http://www.w3.org/1999/xlink" width="1920" height="1080" viewBox="0 0 1920 1080">
  <defs>
    <clipPath id="clip-path">
      <rect width="120" height="192" fill="none"/>
    </clipPath>
    <clipPath id="clip-bg-light">
      <rect width="1920" height="1080"/>
    </clipPath>
  </defs>
  <g id="bg-light" clip-path="url(#clip-bg-light)">
    <rect width="1920" height="1080" fill="#f3f3f3"/>
    <g id="Component_6_1" data-name="Component 6 – 1" transform="translate(79.183 83)">
      <path id="Subtraction_3" data-name="Subtraction 3" d="M-1936.639,438a51.044,51.044,0,0,1-14.76-2.173,52.049,52.049,0,0,1-13.195-6.121,56.156,56.156,0,0,1-19.438-21.687h94.785a56.154,56.154,0,0,1-19.438,21.687,52.049,52.049,0,0,1-13.195,6.121A51.045,51.045,0,0,1-1936.639,438Z" transform="translate(1826.388 -833.384) rotate(-14)" fill="#e6e6e6"/>
      <circle id="Ellipse_18" data-name="Ellipse 18" cx="10" cy="10" r="10" transform="translate(26.817)" fill="#e6e6e6"/>
    </g>
    <g id="Component_6_2" data-name="Component 6 – 2" transform="translate(1588.767 810.807) rotate(-30)">
      <path id="Subtraction_3-2" data-name="Subtraction 3" d="M81.752,58.828A83.317,83.317,0,0,1,56.127,55.22a85.4,85.4,0,0,1-22.8-10.91A97.316,97.316,0,0,1,.077,4.935l164.932-2.5a105.98,105.98,0,0,1-34.4,40.4,91.526,91.526,0,0,1-23.121,11.605A85.571,85.571,0,0,1,81.752,58.828Z" transform="translate(-0.664 71.798) rotate(-14)" fill="#e6e6e6"/>
      <circle id="Ellipse_18-2" data-name="Ellipse 18" cx="17.339" cy="17.339" r="17.339" transform="translate(43.375)" fill="#e6e6e6"/>
    </g>
    <g id="Component_5_1" data-name="Component 5 – 1" transform="translate(692.5 322.5)">
      <g id="Group_25" data-name="Group 25" transform="translate(-692.5 -346.5)">
        <line id="Line_8" data-name="Line 8" y1="12" x2="14" transform="translate(692.5 346.5)" fill="none" stroke="#e6e6e6" stroke-linecap="round" stroke-width="2"/>
        <line id="Line_9" data-name="Line 9" x1="14" y1="12" transform="translate(706.5 346.5)" fill="none" stroke="#e6e6e6" stroke-linecap="round" stroke-width="2"/>
      </g>
      <g id="Group_25-2" data-name="Group 25" transform="translate(-664.5 -346.5)">
        <line id="Line_8-2" data-name="Line 8" y1="12" x2="14" transform="translate(692.5 346.5)" fill="none" stroke="#e6e6e6" stroke-linecap="round" stroke-width="2"/>
        <line id="Line_9-2" data-name="Line 9" x1="14" y1="12" transform="translate(706.5 346.5)" fill="none" stroke="#e6e6e6" stroke-linecap="round" stroke-width="2"/>
      </g>
      <g id="Group_25-3" data-name="Group 25" transform="translate(-636.5 -346.5)">
        <line id="Line_8-3" data-name="Line 8" y1="12" x2="14" transform="translate(692.5 346.5)" fill="none" stroke="#e6e6e6" stroke-linecap="round" stroke-width="2"/>
        <line id="Line_9-3" data-name="Line 9" x1="14" y1="12" transform="translate(706.5 346.5)" fill="none" stroke="#e6e6e6" stroke-linecap="round" stroke-width="2"/>
      </g>
      <g id="Group_25-4" data-name="Group 25" transform="translate(-608.5 -346.5)">
        <line id="Line_8-4" data-name="Line 8" y1="12" x2="14" transform="translate(692.5 346.5)" fill="none" stroke="#e6e6e6" stroke-linecap="round" stroke-width="2"/>
        <line id="Line_9-4" data-name="Line 9" x1="14" y1="12" transform="translate(706.5 346.5)" fill="none" stroke="#e6e6e6" stroke-linecap="round" stroke-width="2"/>
      </g>
      <g id="Group_25-5" data-name="Group 25" transform="translate(-580.5 -346.5)">
        <line id="Line_8-5" data-name="Line 8" y1="12" x2="14" transform="translate(692.5 346.5)" fill="none" stroke="#e6e6e6" stroke-linecap="round" stroke-width="2"/>
        <line id="Line_9-5" data-name="Line 9" x1="14" y1="12" transform="translate(706.5 346.5)" fill="none" stroke="#e6e6e6" stroke-linecap="round" stroke-width="2"/>
      </g>
      <g id="Group_25-6" data-name="Group 25" transform="translate(-552.5 -346.5)">
        <line id="Line_8-6" data-name="Line 8" y1="12" x2="14" transform="translate(692.5 346.5)" fill="none" stroke="#e6e6e6" stroke-linecap="round" stroke-width="2"/>
        <line id="Line_9-6" data-name="Line 9" x1="14" y1="12" transform="translate(706.5 346.5)" fill="none" stroke="#e6e6e6" stroke-linecap="round" stroke-width="2"/>
      </g>
    </g>
    <g id="Component_5_2" data-name="Component 5 – 2" transform="translate(692.5 296.5)">
      <g id="Group_25-7" data-name="Group 25" transform="translate(-692.5 -346.5)">
        <line id="Line_8-7" data-name="Line 8" y1="12" x2="14" transform="translate(692.5 346.5)" fill="none" stroke="#e6e6e6" stroke-linecap="round" stroke-width="2"/>
        <line id="Line_9-7" data-name="Line 9" x1="14" y1="12" transform="translate(706.5 346.5)" fill="none" stroke="#e6e6e6" stroke-linecap="round" stroke-width="2"/>
      </g>
      <g id="Group_25-8" data-name="Group 25" transform="translate(-664.5 -346.5)">
        <line id="Line_8-8" data-name="Line 8" y1="12" x2="14" transform="translate(692.5 346.5)" fill="none" stroke="#e6e6e6" stroke-linecap="round" stroke-width="2"/>
        <line id="Line_9-8" data-name="Line 9" x1="14" y1="12" transform="translate(706.5 346.5)" fill="none" stroke="#e6e6e6" stroke-linecap="round" stroke-width="2"/>
      </g>
      <g id="Group_25-9" data-name="Group 25" transform="translate(-636.5 -346.5)">
        <line id="Line_8-9" data-name="Line 8" y1="12" x2="14" transform="translate(692.5 346.5)" fill="none" stroke="#e6e6e6" stroke-linecap="round" stroke-width="2"/>
        <line id="Line_9-9" data-name="Line 9" x1="14" y1="12" transform="translate(706.5 346.5)" fill="none" stroke="#e6e6e6" stroke-linecap="round" stroke-width="2"/>
      </g>
      <g id="Group_25-10" data-name="Group 25" transform="translate(-608.5 -346.5)">
        <line id="Line_8-10" data-name="Line 8" y1="12" x2="14" transform="translate(692.5 346.5)" fill="none" stroke="#e6e6e6" stroke-linecap="round" stroke-width="2"/>
        <line id="Line_9-10" data-name="Line 9" x1="14" y1="12" transform="translate(706.5 346.5)" fill="none" stroke="#e6e6e6" stroke-linecap="round" stroke-width="2"/>
      </g>
      <g id="Group_25-11" data-name="Group 25" transform="translate(-580.5 -346.5)">
        <line id="Line_8-11" data-name="Line 8" y1="12" x2="14" transform="translate(692.5 346.5)" fill="none" stroke="#e6e6e6" stroke-linecap="round" stroke-width="2"/>
        <line id="Line_9-11" data-name="Line 9" x1="14" y1="12" transform="translate(706.5 346.5)" fill="none" stroke="#e6e6e6" stroke-linecap="round" stroke-width="2"/>
      </g>
      <g id="Group_25-12" data-name="Group 25" transform="translate(-552.5 -346.5)">
        <line id="Line_8-12" data-name="Line 8" y1="12" x2="14" transform="translate(692.5 346.5)" fill="none" stroke="#e6e6e6" stroke-linecap="round" stroke-width="2"/>
        <line id="Line_9-12" data-name="Line 9" x1="14" y1="12" transform="translate(706.5 346.5)" fill="none" stroke="#e6e6e6" stroke-linecap="round" stroke-width="2"/>
      </g>
    </g>
    <g id="Component_5_3" data-name="Component 5 – 3" transform="translate(1064.5 595.5)">
      <g id="Group_25-13" data-name="Group 25" transform="translate(-692.5 -346.5)">
        <line id="Line_8-13" data-name="Line 8" y1="12" x2="14" transform="translate(692.5 346.5)" fill="none" stroke="#e6e6e6" stroke-linecap="round" stroke-width="2"/>
        <line id="Line_9-13" data-name="Line 9" x1="14" y1="12" transform="translate(706.5 346.5)" fill="none" stroke="#e6e6e6" stroke-linecap="round" stroke-width="2"/>
      </g>
      <g id="Group_25-14" data-name="Group 25" transform="translate(-664.5 -346.5)">
        <line id="Line_8-14" data-name="Line 8" y1="12" x2="14" transform="translate(692.5 346.5)" fill="none" stroke="#e6e6e6" stroke-linecap="round" stroke-width="2"/>
        <line id="Line_9-14" data-name="Line 9" x1="14" y1="12" transform="translate(706.5 346.5)" fill="none" stroke="#e6e6e6" stroke-linecap="round" stroke-width="2"/>
      </g>
      <g id="Group_25-15" data-name="Group 25" transform="translate(-636.5 -346.5)">
        <line id="Line_8-15" data-name="Line 8" y1="12" x2="14" transform="translate(692.5 346.5)" fill="none" stroke="#e6e6e6" stroke-linecap="round" stroke-width="2"/>
        <line id="Line_9-15" data-name="Line 9" x1="14" y1="12" transform="translate(706.5 346.5)" fill="none" stroke="#e6e6e6" stroke-linecap="round" stroke-width="2"/>
      </g>
      <g id="Group_25-16" data-name="Group 25" transform="translate(-608.5 -346.5)">
        <line id="Line_8-16" data-name="Line 8" y1="12" x2="14" transform="translate(692.5 346.5)" fill="none" stroke="#e6e6e6" stroke-linecap="round" stroke-width="2"/>
        <line id="Line_9-16" data-name="Line 9" x1="14" y1="12" transform="translate(706.5 346.5)" fill="none" stroke="#e6e6e6" stroke-linecap="round" stroke-width="2"/>
      </g>
      <g id="Group_25-17" data-name="Group 25" transform="translate(-580.5 -346.5)">
        <line id="Line_8-17" data-name="Line 8" y1="12" x2="14" transform="translate(692.5 346.5)" fill="none" stroke="#e6e6e6" stroke-linecap="round" stroke-width="2"/>
        <line id="Line_9-17" data-name="Line 9" x1="14" y1="12" transform="translate(706.5 346.5)" fill="none" stroke="#e6e6e6" stroke-linecap="round" stroke-width="2"/>
      </g>
      <g id="Group_25-18" data-name="Group 25" transform="translate(-552.5 -346.5)">
        <line id="Line_8-18" data-name="Line 8" y1="12" x2="14" transform="translate(692.5 346.5)" fill="none" stroke="#e6e6e6" stroke-linecap="round" stroke-width="2"/>
        <line id="Line_9-18" data-name="Line 9" x1="14" y1="12" transform="translate(706.5 346.5)" fill="none" stroke="#e6e6e6" stroke-linecap="round" stroke-width="2"/>
      </g>
    </g>
    <g id="Component_5_4" data-name="Component 5 – 4" transform="translate(1065.5 621.5)">
      <g id="Group_25-19" data-name="Group 25" transform="translate(-692.5 -346.5)">
        <line id="Line_8-19" data-name="Line 8" y1="12" x2="14" transform="translate(692.5 346.5)" fill="none" stroke="#e6e6e6" stroke-linecap="round" stroke-width="2"/>
        <line id="Line_9-19" data-name="Line 9" x1="14" y1="12" transform="translate(706.5 346.5)" fill="none" stroke="#e6e6e6" stroke-linecap="round" stroke-width="2"/>
      </g>
      <g id="Group_25-20" data-name="Group 25" transform="translate(-664.5 -346.5)">
        <line id="Line_8-20" data-name="Line 8" y1="12" x2="14" transform="translate(692.5 346.5)" fill="none" stroke="#e6e6e6" stroke-linecap="round" stroke-width="2"/>
        <line id="Line_9-20" data-name="Line 9" x1="14" y1="12" transform="translate(706.5 346.5)" fill="none" stroke="#e6e6e6" stroke-linecap="round" stroke-width="2"/>
      </g>
      <g id="Group_25-21" data-name="Group 25" transform="translate(-636.5 -346.5)">
        <line id="Line_8-21" data-name="Line 8" y1="12" x2="14" transform="translate(692.5 346.5)" fill="none" stroke="#e6e6e6" stroke-linecap="round" stroke-width="2"/>
        <line id="Line_9-21" data-name="Line 9" x1="14" y1="12" transform="translate(706.5 346.5)" fill="none" stroke="#e6e6e6" stroke-linecap="round" stroke-width="2"/>
      </g>
      <g id="Group_25-22" data-name="Group 25" transform="translate(-608.5 -346.5)">
        <line id="Line_8-22" data-name="Line 8" y1="12" x2="14" transform="translate(692.5 346.5)" fill="none" stroke="#e6e6e6" stroke-linecap="round" stroke-width="2"/>
        <line id="Line_9-22" data-name="Line 9" x1="14" y1="12" transform="translate(706.5 346.5)" fill="none" stroke="#e6e6e6" stroke-linecap="round" stroke-width="2"/>
      </g>
      <g id="Group_25-23" data-name="Group 25" transform="translate(-580.5 -346.5)">
        <line id="Line_8-23" data-name="Line 8" y1="12" x2="14" transform="translate(692.5 346.5)" fill="none" stroke="#e6e6e6" stroke-linecap="round" stroke-width="2"/>
        <line id="Line_9-23" data-name="Line 9" x1="14" y1="12" transform="translate(706.5 346.5)" fill="none" stroke="#e6e6e6" stroke-linecap="round" stroke-width="2"/>
      </g>
      <g id="Group_25-24" data-name="Group 25" transform="translate(-552.5 -346.5)">
        <line id="Line_8-24" data-name="Line 8" y1="12" x2="14" transform="translate(692.5 346.5)" fill="none" stroke="#e6e6e6" stroke-linecap="round" stroke-width="2"/>
        <line id="Line_9-24" data-name="Line 9" x1="14" y1="12" transform="translate(706.5 346.5)" fill="none" stroke="#e6e6e6" stroke-linecap="round" stroke-width="2"/>
      </g>
    </g>
    <g id="Component_5_5" data-name="Component 5 – 5" transform="translate(1760.5 587.5)">
      <g id="Group_25-25" data-name="Group 25" transform="translate(-692.5 -346.5)">
        <line id="Line_8-25" data-name="Line 8" y1="12" x2="14" transform="translate(692.5 346.5)" fill="none" stroke="#e6e6e6" stroke-linecap="round" stroke-width="2"/>
        <line id="Line_9-25" data-name="Line 9" x1="14" y1="12" transform="translate(706.5 346.5)" fill="none" stroke="#e6e6e6" stroke-linecap="round" stroke-width="2"/>
      </g>
      <g id="Group_25-26" data-name="Group 25" transform="translate(-664.5 -346.5)">
        <line id="Line_8-26" data-name="Line 8" y1="12" x2="14" transform="translate(692.5 346.5)" fill="none" stroke="#e6e6e6" stroke-linecap="round" stroke-width="2"/>
        <line id="Line_9-26" data-name="Line 9" x1="14" y1="12" transform="translate(706.5 346.5)" fill="none" stroke="#e6e6e6" stroke-linecap="round" stroke-width="2"/>
      </g>
      <g id="Group_25-27" data-name="Group 25" transform="translate(-636.5 -346.5)">
        <line id="Line_8-27" data-name="Line 8" y1="12" x2="14" transform="translate(692.5 346.5)" fill="none" stroke="#e6e6e6" stroke-linecap="round" stroke-width="2"/>
        <line id="Line_9-27" data-name="Line 9" x1="14" y1="12" transform="translate(706.5 346.5)" fill="none" stroke="#e6e6e6" stroke-linecap="round" stroke-width="2"/>
      </g>
      <g id="Group_25-28" data-name="Group 25" transform="translate(-608.5 -346.5)">
        <line id="Line_8-28" data-name="Line 8" y1="12" x2="14" transform="translate(692.5 346.5)" fill="none" stroke="#e6e6e6" stroke-linecap="round" stroke-width="2"/>
        <line id="Line_9-28" data-name="Line 9" x1="14" y1="12" transform="translate(706.5 346.5)" fill="none" stroke="#e6e6e6" stroke-linecap="round" stroke-width="2"/>
      </g>
      <g id="Group_25-29" data-name="Group 25" transform="translate(-580.5 -346.5)">
        <line id="Line_8-29" data-name="Line 8" y1="12" x2="14" transform="translate(692.5 346.5)" fill="none" stroke="#e6e6e6" stroke-linecap="round" stroke-width="2"/>
        <line id="Line_9-29" data-name="Line 9" x1="14" y1="12" transform="translate(706.5 346.5)" fill="none" stroke="#e6e6e6" stroke-linecap="round" stroke-width="2"/>
      </g>
      <g id="Group_25-30" data-name="Group 25" transform="translate(-552.5 -346.5)">
        <line id="Line_8-30" data-name="Line 8" y1="12" x2="14" transform="translate(692.5 346.5)" fill="none" stroke="#e6e6e6" stroke-linecap="round" stroke-width="2"/>
        <line id="Line_9-30" data-name="Line 9" x1="14" y1="12" transform="translate(706.5 346.5)" fill="none" stroke="#e6e6e6" stroke-linecap="round" stroke-width="2"/>
      </g>
    </g>
    <g id="Component_5_6" data-name="Component 5 – 6" transform="translate(1760.5 613.5)">
      <g id="Group_25-31" data-name="Group 25" transform="translate(-692.5 -346.5)">
        <line id="Line_8-31" data-name="Line 8" y1="12" x2="14" transform="translate(692.5 346.5)" fill="none" stroke="#e6e6e6" stroke-linecap="round" stroke-width="2"/>
        <line id="Line_9-31" data-name="Line 9" x1="14" y1="12" transform="translate(706.5 346.5)" fill="none" stroke="#e6e6e6" stroke-linecap="round" stroke-width="2"/>
      </g>
      <g id="Group_25-32" data-name="Group 25" transform="translate(-664.5 -346.5)">
        <line id="Line_8-32" data-name="Line 8" y1="12" x2="14" transform="translate(692.5 346.5)" fill="none" stroke="#e6e6e6" stroke-linecap="round" stroke-width="2"/>
        <line id="Line_9-32" data-name="Line 9" x1="14" y1="12" transform="translate(706.5 346.5)" fill="none" stroke="#e6e6e6" stroke-linecap="round" stroke-width="2"/>
      </g>
      <g id="Group_25-33" data-name="Group 25" transform="translate(-636.5 -346.5)">
        <line id="Line_8-33" data-name="Line 8" y1="12" x2="14" transform="translate(692.5 346.5)" fill="none" stroke="#e6e6e6" stroke-linecap="round" stroke-width="2"/>
        <line id="Line_9-33" data-name="Line 9" x1="14" y1="12" transform="translate(706.5 346.5)" fill="none" stroke="#e6e6e6" stroke-linecap="round" stroke-width="2"/>
      </g>
      <g id="Group_25-34" data-name="Group 25" transform="translate(-608.5 -346.5)">
        <line id="Line_8-34" data-name="Line 8" y1="12" x2="14" transform="translate(692.5 346.5)" fill="none" stroke="#e6e6e6" stroke-linecap="round" stroke-width="2"/>
        <line id="Line_9-34" data-name="Line 9" x1="14" y1="12" transform="translate(706.5 346.5)" fill="none" stroke="#e6e6e6" stroke-linecap="round" stroke-width="2"/>
      </g>
      <g id="Group_25-35" data-name="Group 25" transform="translate(-580.5 -346.5)">
        <line id="Line_8-35" data-name="Line 8" y1="12" x2="14" transform="translate(692.5 346.5)" fill="none" stroke="#e6e6e6" stroke-linecap="round" stroke-width="2"/>
        <line id="Line_9-35" data-name="Line 9" x1="14" y1="12" transform="translate(706.5 346.5)" fill="none" stroke="#e6e6e6" stroke-linecap="round" stroke-width="2"/>
      </g>
      <g id="Group_25-36" data-name="Group 25" transform="translate(-552.5 -346.5)">
        <line id="Line_8-36" data-name="Line 8" y1="12" x2="14" transform="translate(692.5 346.5)" fill="none" stroke="#e6e6e6" stroke-linecap="round" stroke-width="2"/>
        <line id="Line_9-36" data-name="Line 9" x1="14" y1="12" transform="translate(706.5 346.5)" fill="none" stroke="#e6e6e6" stroke-linecap="round" stroke-width="2"/>
      </g>
    </g>
    <g id="Rectangle_16" data-name="Rectangle 16" transform="translate(1678 301)" fill="none" stroke="#e6e6e6" stroke-width="12">
      <rect width="50" height="50" stroke="none"/>
      <rect x="6" y="6" width="38" height="38" fill="none"/>
    </g>
    <rect id="Rectangle_17" data-name="Rectangle 17" width="34" height="35" transform="translate(888 572)" fill="#e6e6e6"/>
    <rect id="Rectangle_18" data-name="Rectangle 18" width="24" height="23" transform="translate(829 728)" fill="#e6e6e6"/>
    <rect id="Rectangle_19" data-name="Rectangle 19" width="17" height="17" transform="translate(965 731)" fill="#e6e6e6"/>
    <circle id="Ellipse_14" data-name="Ellipse 14" cx="280.5" cy="280.5" r="280.5" transform="translate(-481 544)" fill="#e6e6e6"/>
    <path id="Path_4" data-name="Path 4" d="M1696.366,1076.652h0l652.06-652.734,146.186,258.522" transform="translate(-1991 -52)" fill="none" stroke="#e6e6e6" stroke-linecap="round" stroke-width="4"/>
    <path id="Path_2" data-name="Path 2" d="M1.675,1.187,345.238,588.972" transform="translate(290.5 439.5)" fill="none" stroke="#e6e6e6" stroke-linecap="round" stroke-width="4"/>
    <line id="Line_10" data-name="Line 10" y1="149" x2="149" transform="translate(542.5 721.5)" fill="none" stroke="#e6e6e6" stroke-width="4"/>
    <line id="Line_11" data-name="Line 11" y1="149" x2="149" transform="translate(567.238 761.5)" fill="none" stroke="#e6e6e6" stroke-width="4"/>
    <line id="Line_12" data-name="Line 12" y1="149" x2="149" transform="translate(589.238 801.5)" fill="none" stroke="#e6e6e6" stroke-width="4"/>
    <path id="Polygon_1" data-name="Polygon 1" d="M43,0,86,72H0Z" transform="translate(786 956)" fill="#e6e6e6"/>
    <path id="Path_3" data-name="Path 3" d="M129.614-7.5,427.866,504.573H-165.865Z" transform="translate(441.557 523)" fill="none" stroke="#e6e6e6" stroke-linecap="round" stroke-linejoin="round" stroke-width="4"/>
    <g id="Repeat_Grid_2" data-name="Repeat Grid 2" transform="translate(144 810)" clip-path="url(#clip-path)">
      <g transform="translate(-144 -860)">
        <circle id="Ellipse_20" data-name="Ellipse 20" cx="5" cy="5" r="5" transform="translate(144 860)" fill="#e6e6e6"/>
      </g>
      <g transform="translate(-89 -860)">
        <circle id="Ellipse_20-2" data-name="Ellipse 20" cx="5" cy="5" r="5" transform="translate(144 860)" fill="#e6e6e6"/>
      </g>
      <g transform="translate(-34 -860)">
        <circle id="Ellipse_20-3" data-name="Ellipse 20" cx="5" cy="5" r="5" transform="translate(144 860)" fill="#e6e6e6"/>
      </g>
      <g transform="translate(-144 -824)">
        <circle id="Ellipse_20-4" data-name="Ellipse 20" cx="5" cy="5" r="5" transform="translate(144 860)" fill="#e6e6e6"/>
      </g>
      <g transform="translate(-89 -824)">
        <circle id="Ellipse_20-5" data-name="Ellipse 20" cx="5" cy="5" r="5" transform="translate(144 860)" fill="#e6e6e6"/>
      </g>
      <g transform="translate(-34 -824)">
        <circle id="Ellipse_20-6" data-name="Ellipse 20" cx="5" cy="5" r="5" transform="translate(144 860)" fill="#e6e6e6"/>
      </g>
      <g transform="translate(-144 -788)">
        <circle id="Ellipse_20-7" data-name="Ellipse 20" cx="5" cy="5" r="5" transform="translate(144 860)" fill="#e6e6e6"/>
      </g>
      <g transform="translate(-89 -788)">
        <circle id="Ellipse_20-8" data-name="Ellipse 20" cx="5" cy="5" r="5" transform="translate(144 860)" fill="#e6e6e6"/>
      </g>
      <g transform="translate(-34 -788)">
        <circle id="Ellipse_20-9" data-name="Ellipse 20" cx="5" cy="5" r="5" transform="translate(144 860)" fill="#e6e6e6"/>
      </g>
      <g transform="translate(-144 -752)">
        <circle id="Ellipse_20-10" data-name="Ellipse 20" cx="5" cy="5" r="5" transform="translate(144 860)" fill="#e6e6e6"/>
      </g>
      <g transform="translate(-89 -752)">
        <circle id="Ellipse_20-11" data-name="Ellipse 20" cx="5" cy="5" r="5" transform="translate(144 860)" fill="#e6e6e6"/>
      </g>
      <g transform="translate(-34 -752)">
        <circle id="Ellipse_20-12" data-name="Ellipse 20" cx="5" cy="5" r="5" transform="translate(144 860)" fill="#e6e6e6"/>
      </g>
      <g transform="translate(-144 -716)">
        <circle id="Ellipse_20-13" data-name="Ellipse 20" cx="5" cy="5" r="5" transform="translate(144 860)" fill="#e6e6e6"/>
      </g>
      <g transform="translate(-89 -716)">
        <circle id="Ellipse_20-14" data-name="Ellipse 20" cx="5" cy="5" r="5" transform="translate(144 860)" fill="#e6e6e6"/>
      </g>
      <g transform="translate(-34 -716)">
        <circle id="Ellipse_20-15" data-name="Ellipse 20" cx="5" cy="5" r="5" transform="translate(144 860)" fill="#e6e6e6"/>
      </g>
      <g transform="translate(-144 -680)">
        <circle id="Ellipse_20-16" data-name="Ellipse 20" cx="5" cy="5" r="5" transform="translate(144 860)" fill="#e6e6e6"/>
      </g>
      <g transform="translate(-89 -680)">
        <circle id="Ellipse_20-17" data-name="Ellipse 20" cx="5" cy="5" r="5" transform="translate(144 860)" fill="#e6e6e6"/>
      </g>
      <g transform="translate(-34 -680)">
        <circle id="Ellipse_20-18" data-name="Ellipse 20" cx="5" cy="5" r="5" transform="translate(144 860)" fill="#e6e6e6"/>
      </g>
    </g>
    <g id="Group_26" data-name="Group 26" transform="translate(87.447 151)">
      <path id="Subtraction_5" data-name="Subtraction 5" d="M-1958.466,164.245h0a94.71,94.71,0,0,1-13.089-14.31,94.12,94.12,0,0,1-9.933-16.792,93.5,93.5,0,0,1-6.305-18.8A94.6,94.6,0,0,1-1990,94a93.415,93.415,0,0,1,7.387-36.589,94.022,94.022,0,0,1,8.667-15.967,94.69,94.69,0,0,1,11.478-13.912,94.678,94.678,0,0,1,13.912-11.478,94.008,94.008,0,0,1,15.967-8.667A93.41,93.41,0,0,1-1896,0a94.592,94.592,0,0,1,20.341,2.206,93.5,93.5,0,0,1,18.8,6.305,94.116,94.116,0,0,1,16.792,9.933,94.711,94.711,0,0,1,14.311,13.09l-132.71,132.709Z" transform="translate(2014 270)" fill="#e6e6e6"/>
      <path id="Intersection_3" data-name="Intersection 3" d="M-1965.765,157A93.764,93.764,0,0,1-1896,126a93.765,93.765,0,0,1,69.765,31A93.765,93.765,0,0,1-1896,188,93.763,93.763,0,0,1-1965.765,157Z" transform="translate(2014 144)" fill="#e2e2e2"/>
    </g>
  </g>
</svg>
